# xmcd CD database file
#
# Track frame offsets:
#	150
#	11385
#	27038
#	39093
#	53333
#	66158
#	80941
#	92791
#	106774
#	119905
#	131224
#	151986
#	165307
#	177766
#	191532
#	205443
#
# Disc length: 2906 seconds
#
# Revision: 0
# Processed by: cddbd v1.5.2PL0 Copyright (c) Steve Scherf et al.
# Submitted via: CDex 1.70beta2
#
DISCID=cb0b5810
DTITLE=01 - Unknown CD for MusicBrainz and FreeDB
DYEAR=1900
DGENRE=Country
TTITLE0=Pista de audio 01 - 02
TTITLE1=Pista de audio 02 - 03
TTITLE2=Pista de audio 03
TTITLE3=Pista de audio 04 - 04
TTITLE4=Pista de audio 05 - 05
TTITLE5=Pista de audio 06 - 06
TTITLE6=Pista de audio 07 - 07
TTITLE7=Pista de audio 08 - 08
TTITLE8=Pista de audio 09 - 09
TTITLE9=Pista de audio 10 - 10
TTITLE10=Pista de audio 11 - 11
TTITLE11=Pista de audio 12 - 12
TTITLE12=Pista de audio 13 - 13
TTITLE13=Pista de audio 14 - 14
TTITLE14=Pista de audio 15 - 15
TTITLE15=Pista de audio 16 - 16
EXTD=
EXTT0=
EXTT1=
EXTT2=
EXTT3=
EXTT4=
EXTT5=
EXTT6=
EXTT7=
EXTT8=
EXTT9=
EXTT10=
EXTT11=
EXTT12=
EXTT13=
EXTT14=
EXTT15=
PLAYORDER=
